<?xml version="1.0" encoding="UTF-8" standalone="no"?>
<!DOCTYPE svg PUBLIC "-//W3C//DTD SVG 1.1//EN"
 "http://www.w3.org/Graphics/SVG/1.1/DTD/svg11.dtd">
<!-- Generated by graphviz version 2.47.0 (20210316.0004)
 -->
<!-- Title: dependencies Pages: 1 -->
<svg width="2258pt" height="211pt"
 viewBox="0.00 0.00 2258.00 211.00" xmlns="http://www.w3.org/2000/svg" xmlns:xlink="http://www.w3.org/1999/xlink">
<g id="graph0" class="graph" transform="scale(1 1) rotate(0) translate(4 207)">
<title>dependencies</title>
<polygon fill="white" stroke="transparent" points="-4,4 -4,-207 2254,-207 2254,4 -4,4"/>
<text text-anchor="start" x="1104.01" y="-42.4" font-family="Times-12" font-weight="bold" font-size="14.00">Legend</text>
<polygon fill="#ffffb3" stroke="transparent" points="891,-10 891,-30 911,-30 911,-10 891,-10"/>
<text text-anchor="start" x="914.63" y="-15.4" font-family="Times-12" font-size="14.00"> &#160;Declarations</text>
<polygon fill="#8dd3c7" stroke="transparent" points="1004,-10 1004,-30 1024,-30 1024,-10 1004,-10"/>
<text text-anchor="start" x="1027.73" y="-15.4" font-family="Times-12" font-size="14.00"> &#160;Module</text>
<polygon fill="#80b1d3" stroke="transparent" points="1090,-10 1090,-30 1110,-30 1110,-10 1090,-10"/>
<text text-anchor="start" x="1113.78" y="-15.4" font-family="Times-12" font-size="14.00"> &#160;Bootstrap</text>
<polygon fill="#fdb462" stroke="transparent" points="1187,-10 1187,-30 1207,-30 1207,-10 1187,-10"/>
<text text-anchor="start" x="1210.67" y="-15.4" font-family="Times-12" font-size="14.00"> &#160;Providers</text>
<polygon fill="#fb8072" stroke="transparent" points="1283,-10 1283,-30 1303,-30 1303,-10 1283,-10"/>
<text text-anchor="start" x="1306.73" y="-15.4" font-family="Times-12" font-size="14.00"> &#160;Exports</text>
<g id="clust1" class="cluster">
<title>cluster_AppModule</title>
<polygon fill="none" stroke="black" stroke-dasharray="1,5" points="8,-70 8,-195 2242,-195 2242,-70 8,-70"/>
</g>
<g id="clust3" class="cluster">
<title>cluster_AppModule_imports</title>
<polygon fill="none" stroke="black" points="16,-78 16,-130 2234,-130 2234,-78 16,-78"/>
</g>
<!-- AdminModule -->
<g id="node1" class="node">
<title>AdminModule</title>
<polygon fill="#8dd3c7" stroke="black" points="2226.44,-122 2223.44,-126 2202.44,-126 2199.44,-122 2127.56,-122 2127.56,-86 2226.44,-86 2226.44,-122"/>
<text text-anchor="middle" x="2177" y="-99.8" font-family="Times,serif" font-size="14.00">AdminModule</text>
</g>
<!-- AppModule -->
<g id="node18" class="node">
<title>AppModule</title>
<polygon fill="#8dd3c7" stroke="black" points="1178.66,-187 1175.66,-191 1154.66,-191 1151.66,-187 1095.34,-187 1095.34,-151 1178.66,-151 1178.66,-187"/>
<text text-anchor="middle" x="1137" y="-164.8" font-family="Times,serif" font-size="14.00">AppModule</text>
</g>
<!-- AdminModule&#45;&gt;AppModule -->
<g id="edge1" class="edge">
<title>AdminModule&#45;&gt;AppModule</title>
<path fill="none" stroke="black" d="M2177,-122.32C2177,-145.66 2177,-183 2177,-183 2177,-183 1188.73,-183 1188.73,-183"/>
<polygon fill="black" stroke="black" points="1188.73,-179.5 1178.73,-183 1188.73,-186.5 1188.73,-179.5"/>
</g>
<!-- AttachmentsModule -->
<g id="node2" class="node">
<title>AttachmentsModule</title>
<polygon fill="#8dd3c7" stroke="black" points="2110.31,-122 2107.31,-126 2086.31,-126 2083.31,-122 1979.69,-122 1979.69,-86 2110.31,-86 2110.31,-122"/>
<text text-anchor="middle" x="2045" y="-99.8" font-family="Times,serif" font-size="14.00">AttachmentsModule</text>
</g>
<!-- AttachmentsModule&#45;&gt;AppModule -->
<g id="edge2" class="edge">
<title>AttachmentsModule&#45;&gt;AppModule</title>
<path fill="none" stroke="black" d="M2045,-122.16C2045,-144.35 2045,-179 2045,-179 2045,-179 1188.67,-179 1188.67,-179"/>
<polygon fill="black" stroke="black" points="1188.67,-175.5 1178.67,-179 1188.67,-182.5 1188.67,-175.5"/>
</g>
<!-- AuthModule -->
<g id="node3" class="node">
<title>AuthModule</title>
<polygon fill="#8dd3c7" stroke="black" points="1961.55,-122 1958.55,-126 1937.55,-126 1934.55,-122 1874.45,-122 1874.45,-86 1961.55,-86 1961.55,-122"/>
<text text-anchor="middle" x="1918" y="-99.8" font-family="Times,serif" font-size="14.00">AuthModule</text>
</g>
<!-- AuthModule&#45;&gt;AppModule -->
<g id="edge3" class="edge">
<title>AuthModule&#45;&gt;AppModule</title>
<path fill="none" stroke="black" d="M1918,-122.28C1918,-143.32 1918,-175 1918,-175 1918,-175 1188.71,-175 1188.71,-175"/>
<polygon fill="black" stroke="black" points="1188.71,-171.5 1178.71,-175 1188.71,-178.5 1188.71,-171.5"/>
</g>
<!-- CaslModule -->
<g id="node4" class="node">
<title>CaslModule</title>
<polygon fill="#8dd3c7" stroke="black" points="1856.44,-122 1853.44,-126 1832.44,-126 1829.44,-122 1771.56,-122 1771.56,-86 1856.44,-86 1856.44,-122"/>
<text text-anchor="middle" x="1814" y="-99.8" font-family="Times,serif" font-size="14.00">CaslModule</text>
</g>
<!-- CaslModule&#45;&gt;AppModule -->
<g id="edge4" class="edge">
<title>CaslModule&#45;&gt;AppModule</title>
<path fill="none" stroke="black" d="M1814,-122.31C1814,-142.15 1814,-171 1814,-171 1814,-171 1188.84,-171 1188.84,-171"/>
<polygon fill="black" stroke="black" points="1188.84,-167.5 1178.84,-171 1188.84,-174.5 1188.84,-167.5"/>
</g>
<!-- CommonModule -->
<g id="node5" class="node">
<title>CommonModule</title>
<polygon fill="#8dd3c7" stroke="black" points="1753.67,-122 1750.67,-126 1729.67,-126 1726.67,-122 1642.33,-122 1642.33,-86 1753.67,-86 1753.67,-122"/>
<text text-anchor="middle" x="1698" y="-99.8" font-family="Times,serif" font-size="14.00">CommonModule</text>
</g>
<!-- CommonModule&#45;&gt;AppModule -->
<g id="edge5" class="edge">
<title>CommonModule&#45;&gt;AppModule</title>
<path fill="none" stroke="black" d="M1698,-122.22C1698,-140.83 1698,-167 1698,-167 1698,-167 1188.71,-167 1188.71,-167"/>
<polygon fill="black" stroke="black" points="1188.71,-163.5 1178.71,-167 1188.71,-170.5 1188.71,-163.5"/>
</g>
<!-- DatablocksModule -->
<g id="node6" class="node">
<title>DatablocksModule</title>
<polygon fill="#8dd3c7" stroke="black" points="1624.03,-122 1621.03,-126 1600.03,-126 1597.03,-122 1501.97,-122 1501.97,-86 1624.03,-86 1624.03,-122"/>
<text text-anchor="middle" x="1563" y="-99.8" font-family="Times,serif" font-size="14.00">DatablocksModule</text>
</g>
<!-- DatablocksModule&#45;&gt;AppModule -->
<g id="edge6" class="edge">
<title>DatablocksModule&#45;&gt;AppModule</title>
<path fill="none" stroke="black" d="M1563,-122.02C1563,-139.37 1563,-163 1563,-163 1563,-163 1189.01,-163 1189.01,-163"/>
<polygon fill="black" stroke="black" points="1189.01,-159.5 1179.01,-163 1189.01,-166.5 1189.01,-159.5"/>
</g>
<!-- DatasetsModule -->
<g id="node7" class="node">
<title>DatasetsModule</title>
<polygon fill="#8dd3c7" stroke="black" points="1483.47,-122 1480.47,-126 1459.47,-126 1456.47,-122 1376.53,-122 1376.53,-86 1483.47,-86 1483.47,-122"/>
<text text-anchor="middle" x="1430" y="-99.8" font-family="Times,serif" font-size="14.00">DatasetsModule</text>
</g>
<!-- DatasetsModule&#45;&gt;AppModule -->
<g id="edge7" class="edge">
<title>DatasetsModule&#45;&gt;AppModule</title>
<path fill="none" stroke="black" d="M1430,-122.01C1430,-138.05 1430,-159 1430,-159 1430,-159 1188.67,-159 1188.67,-159"/>
<polygon fill="black" stroke="black" points="1188.67,-155.5 1178.67,-159 1188.67,-162.5 1188.67,-155.5"/>
</g>
<!-- InitialDatasetsModule -->
<g id="node8" class="node">
<title>InitialDatasetsModule</title>
<polygon fill="#8dd3c7" stroke="black" points="1358.41,-122 1355.41,-126 1334.41,-126 1331.41,-122 1217.59,-122 1217.59,-86 1358.41,-86 1358.41,-122"/>
<text text-anchor="middle" x="1288" y="-99.8" font-family="Times,serif" font-size="14.00">InitialDatasetsModule</text>
</g>
<!-- InitialDatasetsModule&#45;&gt;AppModule -->
<g id="edge8" class="edge">
<title>InitialDatasetsModule&#45;&gt;AppModule</title>
<path fill="none" stroke="black" d="M1288,-122.12C1288,-136.78 1288,-155 1288,-155 1288,-155 1188.66,-155 1188.66,-155"/>
<polygon fill="black" stroke="black" points="1188.66,-151.5 1178.66,-155 1188.66,-158.5 1188.66,-151.5"/>
</g>
<!-- InstrumentsModule -->
<g id="node9" class="node">
<title>InstrumentsModule</title>
<polygon fill="#8dd3c7" stroke="black" points="1199.65,-122 1196.65,-126 1175.65,-126 1172.65,-122 1074.35,-122 1074.35,-86 1199.65,-86 1199.65,-122"/>
<text text-anchor="middle" x="1137" y="-99.8" font-family="Times,serif" font-size="14.00">InstrumentsModule</text>
</g>
<!-- InstrumentsModule&#45;&gt;AppModule -->
<g id="edge9" class="edge">
<title>InstrumentsModule&#45;&gt;AppModule</title>
<path fill="none" stroke="black" d="M1137,-122.11C1137,-122.11 1137,-140.99 1137,-140.99"/>
<polygon fill="black" stroke="black" points="1133.5,-140.99 1137,-150.99 1140.5,-140.99 1133.5,-140.99"/>
</g>
<!-- JobsModule -->
<g id="node10" class="node">
<title>JobsModule</title>
<polygon fill="#8dd3c7" stroke="black" points="1056.44,-122 1053.44,-126 1032.44,-126 1029.44,-122 971.56,-122 971.56,-86 1056.44,-86 1056.44,-122"/>
<text text-anchor="middle" x="1014" y="-99.8" font-family="Times,serif" font-size="14.00">JobsModule</text>
</g>
<!-- JobsModule&#45;&gt;AppModule -->
<g id="edge10" class="edge">
<title>JobsModule&#45;&gt;AppModule</title>
<path fill="none" stroke="black" d="M1014,-122.12C1014,-136.78 1014,-155 1014,-155 1014,-155 1085.01,-155 1085.01,-155"/>
<polygon fill="black" stroke="black" points="1085.01,-158.5 1095.01,-155 1085.01,-151.5 1085.01,-158.5"/>
</g>
<!-- LogbooksModule -->
<g id="node11" class="node">
<title>LogbooksModule</title>
<polygon fill="#8dd3c7" stroke="black" points="953.55,-122 950.55,-126 929.55,-126 926.55,-122 838.45,-122 838.45,-86 953.55,-86 953.55,-122"/>
<text text-anchor="middle" x="896" y="-99.8" font-family="Times,serif" font-size="14.00">LogbooksModule</text>
</g>
<!-- LogbooksModule&#45;&gt;AppModule -->
<g id="edge11" class="edge">
<title>LogbooksModule&#45;&gt;AppModule</title>
<path fill="none" stroke="black" d="M896,-122.01C896,-138.05 896,-159 896,-159 896,-159 1085.3,-159 1085.3,-159"/>
<polygon fill="black" stroke="black" points="1085.3,-162.5 1095.3,-159 1085.3,-155.5 1085.3,-162.5"/>
</g>
<!-- OrigDatablocksModule -->
<g id="node12" class="node">
<title>OrigDatablocksModule</title>
<polygon fill="#8dd3c7" stroke="black" points="820.18,-122 817.18,-126 796.18,-126 793.18,-122 671.82,-122 671.82,-86 820.18,-86 820.18,-122"/>
<text text-anchor="middle" x="746" y="-99.8" font-family="Times,serif" font-size="14.00">OrigDatablocksModule</text>
</g>
<!-- OrigDatablocksModule&#45;&gt;AppModule -->
<g id="edge12" class="edge">
<title>OrigDatablocksModule&#45;&gt;AppModule</title>
<path fill="none" stroke="black" d="M746,-122.02C746,-139.37 746,-163 746,-163 746,-163 1085.16,-163 1085.16,-163"/>
<polygon fill="black" stroke="black" points="1085.16,-166.5 1095.16,-163 1085.16,-159.5 1085.16,-166.5"/>
</g>
<!-- PoliciesModule -->
<g id="node13" class="node">
<title>PoliciesModule</title>
<polygon fill="#8dd3c7" stroke="black" points="653.88,-122 650.88,-126 629.88,-126 626.88,-122 550.12,-122 550.12,-86 653.88,-86 653.88,-122"/>
<text text-anchor="middle" x="602" y="-99.8" font-family="Times,serif" font-size="14.00">PoliciesModule</text>
</g>
<!-- PoliciesModule&#45;&gt;AppModule -->
<g id="edge13" class="edge">
<title>PoliciesModule&#45;&gt;AppModule</title>
<path fill="none" stroke="black" d="M602,-122.22C602,-140.83 602,-167 602,-167 602,-167 1085.02,-167 1085.02,-167"/>
<polygon fill="black" stroke="black" points="1085.02,-170.5 1095.02,-167 1085.02,-163.5 1085.02,-170.5"/>
</g>
<!-- ProposalsModule -->
<g id="node14" class="node">
<title>ProposalsModule</title>
<polygon fill="#8dd3c7" stroke="black" points="531.99,-122 528.99,-126 507.99,-126 504.99,-122 418.01,-122 418.01,-86 531.99,-86 531.99,-122"/>
<text text-anchor="middle" x="475" y="-99.8" font-family="Times,serif" font-size="14.00">ProposalsModule</text>
</g>
<!-- ProposalsModule&#45;&gt;AppModule -->
<g id="edge14" class="edge">
<title>ProposalsModule&#45;&gt;AppModule</title>
<path fill="none" stroke="black" d="M475,-122.31C475,-142.15 475,-171 475,-171 475,-171 1085.34,-171 1085.34,-171"/>
<polygon fill="black" stroke="black" points="1085.34,-174.5 1095.34,-171 1085.34,-167.5 1085.34,-174.5"/>
</g>
<!-- PublishedDataModule -->
<g id="node15" class="node">
<title>PublishedDataModule</title>
<polygon fill="#8dd3c7" stroke="black" points="399.7,-122 396.7,-126 375.7,-126 372.7,-122 258.3,-122 258.3,-86 399.7,-86 399.7,-122"/>
<text text-anchor="middle" x="329" y="-99.8" font-family="Times,serif" font-size="14.00">PublishedDataModule</text>
</g>
<!-- PublishedDataModule&#45;&gt;AppModule -->
<g id="edge15" class="edge">
<title>PublishedDataModule&#45;&gt;AppModule</title>
<path fill="none" stroke="black" d="M329,-122.28C329,-143.32 329,-175 329,-175 329,-175 1085.26,-175 1085.26,-175"/>
<polygon fill="black" stroke="black" points="1085.26,-178.5 1095.26,-175 1085.26,-171.5 1085.26,-178.5"/>
</g>
<!-- SamplesModule -->
<g id="node16" class="node">
<title>SamplesModule</title>
<polygon fill="#8dd3c7" stroke="black" points="240.49,-122 237.49,-126 216.49,-126 213.49,-122 133.51,-122 133.51,-86 240.49,-86 240.49,-122"/>
<text text-anchor="middle" x="187" y="-99.8" font-family="Times,serif" font-size="14.00">SamplesModule</text>
</g>
<!-- SamplesModule&#45;&gt;AppModule -->
<g id="edge16" class="edge">
<title>SamplesModule&#45;&gt;AppModule</title>
<path fill="none" stroke="black" d="M187,-122.16C187,-144.35 187,-179 187,-179 187,-179 1085.26,-179 1085.26,-179"/>
<polygon fill="black" stroke="black" points="1085.26,-182.5 1095.26,-179 1085.26,-175.5 1085.26,-182.5"/>
</g>
<!-- UsersModule -->
<g id="node17" class="node">
<title>UsersModule</title>
<polygon fill="#8dd3c7" stroke="black" points="115.92,-122 112.92,-126 91.92,-126 88.92,-122 24.08,-122 24.08,-86 115.92,-86 115.92,-122"/>
<text text-anchor="middle" x="70" y="-99.8" font-family="Times,serif" font-size="14.00">UsersModule</text>
</g>
<!-- UsersModule&#45;&gt;AppModule -->
<g id="edge17" class="edge">
<title>UsersModule&#45;&gt;AppModule</title>
<path fill="none" stroke="black" d="M70,-122.32C70,-145.66 70,-183 70,-183 70,-183 1085.17,-183 1085.17,-183"/>
<polygon fill="black" stroke="black" points="1085.17,-186.5 1095.17,-183 1085.17,-179.5 1085.17,-186.5"/>
</g>
</g>
</svg>
