<?xml version="1.0" encoding="UTF-8" standalone="no"?>
<!DOCTYPE svg PUBLIC "-//W3C//DTD SVG 1.1//EN"
 "http://www.w3.org/Graphics/SVG/1.1/DTD/svg11.dtd">
<!-- Generated by graphviz version 2.47.0 (20210316.0004)
 -->
<!-- Title: dependencies Pages: 1 -->
<svg width="1008pt" height="284pt"
 viewBox="0.00 0.00 1008.00 284.00" xmlns="http://www.w3.org/2000/svg" xmlns:xlink="http://www.w3.org/1999/xlink">
<g id="graph0" class="graph" transform="scale(1 1) rotate(0) translate(4 280)">
<title>dependencies</title>
<polygon fill="white" stroke="transparent" points="-4,4 -4,-280 1004,-280 1004,4 -4,4"/>
<text text-anchor="start" x="479.01" y="-42.4" font-family="Times-12" font-weight="bold" font-size="14.00">Legend</text>
<polygon fill="#ffffb3" stroke="transparent" points="266,-10 266,-30 286,-30 286,-10 266,-10"/>
<text text-anchor="start" x="289.63" y="-15.4" font-family="Times-12" font-size="14.00"> &#160;Declarations</text>
<polygon fill="#8dd3c7" stroke="transparent" points="379,-10 379,-30 399,-30 399,-10 379,-10"/>
<text text-anchor="start" x="402.73" y="-15.4" font-family="Times-12" font-size="14.00"> &#160;Module</text>
<polygon fill="#80b1d3" stroke="transparent" points="465,-10 465,-30 485,-30 485,-10 465,-10"/>
<text text-anchor="start" x="488.78" y="-15.4" font-family="Times-12" font-size="14.00"> &#160;Bootstrap</text>
<polygon fill="#fdb462" stroke="transparent" points="562,-10 562,-30 582,-30 582,-10 562,-10"/>
<text text-anchor="start" x="585.67" y="-15.4" font-family="Times-12" font-size="14.00"> &#160;Providers</text>
<polygon fill="#fb8072" stroke="transparent" points="658,-10 658,-30 678,-30 678,-10 658,-10"/>
<text text-anchor="start" x="681.73" y="-15.4" font-family="Times-12" font-size="14.00"> &#160;Exports</text>
<g id="clust1" class="cluster">
<title>cluster_DatasetsModule</title>
<polygon fill="none" stroke="black" stroke-dasharray="1,5" points="8,-70 8,-268 992,-268 992,-70 8,-70"/>
</g>
<g id="clust4" class="cluster">
<title>cluster_DatasetsModule_exports</title>
<polygon fill="none" stroke="black" points="475,-208 475,-260 599,-260 599,-208 475,-208"/>
</g>
<g id="clust3" class="cluster">
<title>cluster_DatasetsModule_imports</title>
<polygon fill="none" stroke="black" points="374,-78 374,-130 984,-130 984,-78 374,-78"/>
</g>
<g id="clust6" class="cluster">
<title>cluster_DatasetsModule_providers</title>
<polygon fill="none" stroke="black" points="16,-78 16,-130 366,-130 366,-78 16,-78"/>
</g>
<!-- AttachmentsModule -->
<g id="node1" class="node">
<title>AttachmentsModule</title>
<polygon fill="#8dd3c7" stroke="black" points="976.31,-122 973.31,-126 952.31,-126 949.31,-122 845.69,-122 845.69,-86 976.31,-86 976.31,-122"/>
<text text-anchor="middle" x="911" y="-99.8" font-family="Times,serif" font-size="14.00">AttachmentsModule</text>
</g>
<!-- DatasetsModule -->
<g id="node5" class="node">
<title>DatasetsModule</title>
<polygon fill="#8dd3c7" stroke="black" points="590.47,-187 587.47,-191 566.47,-191 563.47,-187 483.53,-187 483.53,-151 590.47,-151 590.47,-187"/>
<text text-anchor="middle" x="537" y="-164.8" font-family="Times,serif" font-size="14.00">DatasetsModule</text>
</g>
<!-- AttachmentsModule&#45;&gt;DatasetsModule -->
<g id="edge1" class="edge">
<title>AttachmentsModule&#45;&gt;DatasetsModule</title>
<path fill="none" stroke="black" d="M911,-122.28C911,-143.32 911,-175 911,-175 911,-175 600.59,-175 600.59,-175"/>
<polygon fill="black" stroke="black" points="600.59,-171.5 590.59,-175 600.59,-178.5 600.59,-171.5"/>
</g>
<!-- DatablocksModule -->
<g id="node2" class="node">
<title>DatablocksModule</title>
<polygon fill="#8dd3c7" stroke="black" points="828.03,-122 825.03,-126 804.03,-126 801.03,-122 705.97,-122 705.97,-86 828.03,-86 828.03,-122"/>
<text text-anchor="middle" x="767" y="-99.8" font-family="Times,serif" font-size="14.00">DatablocksModule</text>
</g>
<!-- DatablocksModule&#45;&gt;DatasetsModule -->
<g id="edge2" class="edge">
<title>DatablocksModule&#45;&gt;DatasetsModule</title>
<path fill="none" stroke="black" d="M767,-122.02C767,-139.37 767,-163 767,-163 767,-163 600.63,-163 600.63,-163"/>
<polygon fill="black" stroke="black" points="600.63,-159.5 590.63,-163 600.63,-166.5 600.63,-159.5"/>
</g>
<!-- InitialDatasetsModule -->
<g id="node3" class="node">
<title>InitialDatasetsModule</title>
<polygon fill="#8dd3c7" stroke="black" points="688.41,-122 685.41,-126 664.41,-126 661.41,-122 547.59,-122 547.59,-86 688.41,-86 688.41,-122"/>
<text text-anchor="middle" x="618" y="-99.8" font-family="Times,serif" font-size="14.00">InitialDatasetsModule</text>
</g>
<!-- InitialDatasetsModule&#45;&gt;DatasetsModule -->
<g id="edge3" class="edge">
<title>InitialDatasetsModule&#45;&gt;DatasetsModule</title>
<path fill="none" stroke="black" d="M569.14,-122.11C569.14,-122.11 569.14,-140.99 569.14,-140.99"/>
<polygon fill="black" stroke="black" points="565.64,-140.99 569.14,-150.99 572.64,-140.99 565.64,-140.99"/>
</g>
<!-- OrigDatablocksModule -->
<g id="node4" class="node">
<title>OrigDatablocksModule</title>
<polygon fill="#8dd3c7" stroke="black" points="530.18,-122 527.18,-126 506.18,-126 503.18,-122 381.82,-122 381.82,-86 530.18,-86 530.18,-122"/>
<text text-anchor="middle" x="456" y="-99.8" font-family="Times,serif" font-size="14.00">OrigDatablocksModule</text>
</g>
<!-- OrigDatablocksModule&#45;&gt;DatasetsModule -->
<g id="edge4" class="edge">
<title>OrigDatablocksModule&#45;&gt;DatasetsModule</title>
<path fill="none" stroke="black" d="M506.8,-122.11C506.8,-122.11 506.8,-140.99 506.8,-140.99"/>
<polygon fill="black" stroke="black" points="503.3,-140.99 506.8,-150.99 510.3,-140.99 503.3,-140.99"/>
</g>
<!-- DatasetsService  -->
<g id="node6" class="node">
<title>DatasetsService </title>
<polygon fill="#fb8072" stroke="black" points="591.4,-252 482.6,-252 482.6,-216 591.4,-216 591.4,-252"/>
<text text-anchor="middle" x="537" y="-229.8" font-family="Times,serif" font-size="14.00">DatasetsService </text>
</g>
<!-- DatasetsModule&#45;&gt;DatasetsService  -->
<g id="edge5" class="edge">
<title>DatasetsModule&#45;&gt;DatasetsService </title>
<path fill="none" stroke="black" stroke-dasharray="5,2" d="M537,-187.11C537,-187.11 537,-205.99 537,-205.99"/>
<polygon fill="black" stroke="black" points="533.5,-205.99 537,-215.99 540.5,-205.99 533.5,-205.99"/>
</g>
<!-- CaslAbilityFactory -->
<g id="node7" class="node">
<title>CaslAbilityFactory</title>
<ellipse fill="#fdb462" stroke="black" cx="273" cy="-104" rx="85.13" ry="18"/>
<text text-anchor="middle" x="273" y="-99.8" font-family="Times,serif" font-size="14.00">CaslAbilityFactory</text>
</g>
<!-- CaslAbilityFactory&#45;&gt;DatasetsModule -->
<g id="edge6" class="edge">
<title>CaslAbilityFactory&#45;&gt;DatasetsModule</title>
<path fill="none" stroke="black" d="M273,-122.02C273,-139.37 273,-163 273,-163 273,-163 473.26,-163 473.26,-163"/>
<polygon fill="black" stroke="black" points="473.26,-166.5 483.26,-163 473.26,-159.5 473.26,-166.5"/>
</g>
<!-- DatasetsService -->
<g id="node8" class="node">
<title>DatasetsService</title>
<ellipse fill="#fdb462" stroke="black" cx="97" cy="-104" rx="72.9" ry="18"/>
<text text-anchor="middle" x="97" y="-99.8" font-family="Times,serif" font-size="14.00">DatasetsService</text>
</g>
<!-- DatasetsService&#45;&gt;DatasetsModule -->
<g id="edge7" class="edge">
<title>DatasetsService&#45;&gt;DatasetsModule</title>
<path fill="none" stroke="black" d="M97,-122.28C97,-143.32 97,-175 97,-175 97,-175 473.49,-175 473.49,-175"/>
<polygon fill="black" stroke="black" points="473.49,-178.5 483.49,-175 473.49,-171.5 473.49,-178.5"/>
</g>
</g>
</svg>
