<?xml version="1.0" encoding="UTF-8" standalone="no"?>
<!DOCTYPE svg PUBLIC "-//W3C//DTD SVG 1.1//EN"
 "http://www.w3.org/Graphics/SVG/1.1/DTD/svg11.dtd">
<!-- Generated by graphviz version 2.47.0 (20210316.0004)
 -->
<!-- Title: dependencies Pages: 1 -->
<svg width="504pt" height="284pt"
 viewBox="0.00 0.00 504.00 284.00" xmlns="http://www.w3.org/2000/svg" xmlns:xlink="http://www.w3.org/1999/xlink">
<g id="graph0" class="graph" transform="scale(1 1) rotate(0) translate(4 280)">
<title>dependencies</title>
<polygon fill="white" stroke="transparent" points="-4,4 -4,-280 500,-280 500,4 -4,4"/>
<text text-anchor="start" x="227.01" y="-42.4" font-family="Times-12" font-weight="bold" font-size="14.00">Legend</text>
<polygon fill="#ffffb3" stroke="transparent" points="14,-10 14,-30 34,-30 34,-10 14,-10"/>
<text text-anchor="start" x="37.63" y="-15.4" font-family="Times-12" font-size="14.00"> &#160;Declarations</text>
<polygon fill="#8dd3c7" stroke="transparent" points="127,-10 127,-30 147,-30 147,-10 127,-10"/>
<text text-anchor="start" x="150.73" y="-15.4" font-family="Times-12" font-size="14.00"> &#160;Module</text>
<polygon fill="#80b1d3" stroke="transparent" points="213,-10 213,-30 233,-30 233,-10 213,-10"/>
<text text-anchor="start" x="236.78" y="-15.4" font-family="Times-12" font-size="14.00"> &#160;Bootstrap</text>
<polygon fill="#fdb462" stroke="transparent" points="310,-10 310,-30 330,-30 330,-10 310,-10"/>
<text text-anchor="start" x="333.67" y="-15.4" font-family="Times-12" font-size="14.00"> &#160;Providers</text>
<polygon fill="#fb8072" stroke="transparent" points="406,-10 406,-30 426,-30 426,-10 406,-10"/>
<text text-anchor="start" x="429.73" y="-15.4" font-family="Times-12" font-size="14.00"> &#160;Exports</text>
<g id="clust1" class="cluster">
<title>cluster_OrigDatablocksModule</title>
<polygon fill="none" stroke="black" stroke-dasharray="1,5" points="37,-70 37,-268 459,-268 459,-70 37,-70"/>
</g>
<g id="clust6" class="cluster">
<title>cluster_OrigDatablocksModule_providers</title>
<polygon fill="none" stroke="black" points="45,-78 45,-130 451,-130 451,-78 45,-78"/>
</g>
<g id="clust4" class="cluster">
<title>cluster_OrigDatablocksModule_exports</title>
<polygon fill="none" stroke="black" points="173,-208 173,-260 339,-260 339,-208 173,-208"/>
</g>
<!-- OrigDatablocksService  -->
<g id="node1" class="node">
<title>OrigDatablocksService </title>
<polygon fill="#fb8072" stroke="black" points="331.11,-252 180.89,-252 180.89,-216 331.11,-216 331.11,-252"/>
<text text-anchor="middle" x="256" y="-229.8" font-family="Times,serif" font-size="14.00">OrigDatablocksService </text>
</g>
<!-- OrigDatablocksModule -->
<g id="node2" class="node">
<title>OrigDatablocksModule</title>
<polygon fill="#8dd3c7" stroke="black" points="330.18,-187 327.18,-191 306.18,-191 303.18,-187 181.82,-187 181.82,-151 330.18,-151 330.18,-187"/>
<text text-anchor="middle" x="256" y="-164.8" font-family="Times,serif" font-size="14.00">OrigDatablocksModule</text>
</g>
<!-- OrigDatablocksModule&#45;&gt;OrigDatablocksService  -->
<g id="edge1" class="edge">
<title>OrigDatablocksModule&#45;&gt;OrigDatablocksService </title>
<path fill="none" stroke="black" stroke-dasharray="5,2" d="M256,-187.11C256,-187.11 256,-205.99 256,-205.99"/>
<polygon fill="black" stroke="black" points="252.5,-205.99 256,-215.99 259.5,-205.99 252.5,-205.99"/>
</g>
<!-- CaslAbilityFactory -->
<g id="node3" class="node">
<title>CaslAbilityFactory</title>
<ellipse fill="#fdb462" stroke="black" cx="358" cy="-104" rx="85.13" ry="18"/>
<text text-anchor="middle" x="358" y="-99.8" font-family="Times,serif" font-size="14.00">CaslAbilityFactory</text>
</g>
<!-- CaslAbilityFactory&#45;&gt;OrigDatablocksModule -->
<g id="edge2" class="edge">
<title>CaslAbilityFactory&#45;&gt;OrigDatablocksModule</title>
<path fill="none" stroke="black" d="M301.51,-117.47C301.51,-117.47 301.51,-140.86 301.51,-140.86"/>
<polygon fill="black" stroke="black" points="298.01,-140.86 301.51,-150.86 305.01,-140.86 298.01,-140.86"/>
</g>
<!-- OrigDatablocksService -->
<g id="node4" class="node">
<title>OrigDatablocksService</title>
<ellipse fill="#fdb462" stroke="black" cx="154" cy="-104" rx="101.26" ry="18"/>
<text text-anchor="middle" x="154" y="-99.8" font-family="Times,serif" font-size="14.00">OrigDatablocksService</text>
</g>
<!-- OrigDatablocksService&#45;&gt;OrigDatablocksModule -->
<g id="edge3" class="edge">
<title>OrigDatablocksService&#45;&gt;OrigDatablocksModule</title>
<path fill="none" stroke="black" d="M218.52,-118.1C218.52,-118.1 218.52,-140.72 218.52,-140.72"/>
<polygon fill="black" stroke="black" points="215.02,-140.72 218.52,-150.72 222.02,-140.72 215.02,-140.72"/>
</g>
</g>
</svg>
