<?xml version="1.0" encoding="UTF-8" standalone="no"?>
<!DOCTYPE svg PUBLIC "-//W3C//DTD SVG 1.1//EN"
 "http://www.w3.org/Graphics/SVG/1.1/DTD/svg11.dtd">
<!-- Generated by graphviz version 2.47.0 (20210316.0004)
 -->
<!-- Title: dependencies Pages: 1 -->
<svg width="504pt" height="211pt"
 viewBox="0.00 0.00 504.00 211.00" xmlns="http://www.w3.org/2000/svg" xmlns:xlink="http://www.w3.org/1999/xlink">
<g id="graph0" class="graph" transform="scale(1 1) rotate(0) translate(4 207)">
<title>dependencies</title>
<polygon fill="white" stroke="transparent" points="-4,4 -4,-207 500,-207 500,4 -4,4"/>
<text text-anchor="start" x="227.01" y="-42.4" font-family="Times-12" font-weight="bold" font-size="14.00">Legend</text>
<polygon fill="#ffffb3" stroke="transparent" points="14,-10 14,-30 34,-30 34,-10 14,-10"/>
<text text-anchor="start" x="37.63" y="-15.4" font-family="Times-12" font-size="14.00"> &#160;Declarations</text>
<polygon fill="#8dd3c7" stroke="transparent" points="127,-10 127,-30 147,-30 147,-10 127,-10"/>
<text text-anchor="start" x="150.73" y="-15.4" font-family="Times-12" font-size="14.00"> &#160;Module</text>
<polygon fill="#80b1d3" stroke="transparent" points="213,-10 213,-30 233,-30 233,-10 213,-10"/>
<text text-anchor="start" x="236.78" y="-15.4" font-family="Times-12" font-size="14.00"> &#160;Bootstrap</text>
<polygon fill="#fdb462" stroke="transparent" points="310,-10 310,-30 330,-30 330,-10 310,-10"/>
<text text-anchor="start" x="333.67" y="-15.4" font-family="Times-12" font-size="14.00"> &#160;Providers</text>
<polygon fill="#fb8072" stroke="transparent" points="406,-10 406,-30 426,-30 426,-10 406,-10"/>
<text text-anchor="start" x="429.73" y="-15.4" font-family="Times-12" font-size="14.00"> &#160;Exports</text>
<g id="clust1" class="cluster">
<title>cluster_InstrumentsModule</title>
<polygon fill="none" stroke="black" stroke-dasharray="1,5" points="52,-70 52,-195 444,-195 444,-70 52,-70"/>
</g>
<g id="clust6" class="cluster">
<title>cluster_InstrumentsModule_providers</title>
<polygon fill="none" stroke="black" points="60,-78 60,-130 436,-130 436,-78 60,-78"/>
</g>
<!-- CaslAbilityFactory -->
<g id="node1" class="node">
<title>CaslAbilityFactory</title>
<ellipse fill="#fdb462" stroke="black" cx="343" cy="-104" rx="85.13" ry="18"/>
<text text-anchor="middle" x="343" y="-99.8" font-family="Times,serif" font-size="14.00">CaslAbilityFactory</text>
</g>
<!-- InstrumentsModule -->
<g id="node3" class="node">
<title>InstrumentsModule</title>
<polygon fill="#8dd3c7" stroke="black" points="310.65,-187 307.65,-191 286.65,-191 283.65,-187 185.35,-187 185.35,-151 310.65,-151 310.65,-187"/>
<text text-anchor="middle" x="248" y="-164.8" font-family="Times,serif" font-size="14.00">InstrumentsModule</text>
</g>
<!-- CaslAbilityFactory&#45;&gt;InstrumentsModule -->
<g id="edge1" class="edge">
<title>CaslAbilityFactory&#45;&gt;InstrumentsModule</title>
<path fill="none" stroke="black" d="M284.38,-117.15C284.38,-117.15 284.38,-140.69 284.38,-140.69"/>
<polygon fill="black" stroke="black" points="280.88,-140.69 284.38,-150.69 287.88,-140.69 280.88,-140.69"/>
</g>
<!-- InstrumentsService -->
<g id="node2" class="node">
<title>InstrumentsService</title>
<ellipse fill="#fdb462" stroke="black" cx="154" cy="-104" rx="85.67" ry="18"/>
<text text-anchor="middle" x="154" y="-99.8" font-family="Times,serif" font-size="14.00">InstrumentsService</text>
</g>
<!-- InstrumentsService&#45;&gt;InstrumentsModule -->
<g id="edge2" class="edge">
<title>InstrumentsService&#45;&gt;InstrumentsModule</title>
<path fill="none" stroke="black" d="M212.38,-117.47C212.38,-117.47 212.38,-140.86 212.38,-140.86"/>
<polygon fill="black" stroke="black" points="208.88,-140.86 212.38,-150.86 215.88,-140.86 208.88,-140.86"/>
</g>
</g>
</svg>
