<?xml version="1.0" encoding="UTF-8" standalone="no"?>
<!DOCTYPE svg PUBLIC "-//W3C//DTD SVG 1.1//EN"
 "http://www.w3.org/Graphics/SVG/1.1/DTD/svg11.dtd">
<!-- Generated by graphviz version 2.47.0 (20210316.0004)
 -->
<!-- Title: dependencies Pages: 1 -->
<svg width="540pt" height="284pt"
 viewBox="0.00 0.00 540.00 284.00" xmlns="http://www.w3.org/2000/svg" xmlns:xlink="http://www.w3.org/1999/xlink">
<g id="graph0" class="graph" transform="scale(1 1) rotate(0) translate(4 280)">
<title>dependencies</title>
<polygon fill="white" stroke="transparent" points="-4,4 -4,-280 536,-280 536,4 -4,4"/>
<text text-anchor="start" x="245.01" y="-42.4" font-family="Times-12" font-weight="bold" font-size="14.00">Legend</text>
<polygon fill="#ffffb3" stroke="transparent" points="32,-10 32,-30 52,-30 52,-10 32,-10"/>
<text text-anchor="start" x="55.63" y="-15.4" font-family="Times-12" font-size="14.00"> &#160;Declarations</text>
<polygon fill="#8dd3c7" stroke="transparent" points="145,-10 145,-30 165,-30 165,-10 145,-10"/>
<text text-anchor="start" x="168.73" y="-15.4" font-family="Times-12" font-size="14.00"> &#160;Module</text>
<polygon fill="#80b1d3" stroke="transparent" points="231,-10 231,-30 251,-30 251,-10 231,-10"/>
<text text-anchor="start" x="254.78" y="-15.4" font-family="Times-12" font-size="14.00"> &#160;Bootstrap</text>
<polygon fill="#fdb462" stroke="transparent" points="328,-10 328,-30 348,-30 348,-10 328,-10"/>
<text text-anchor="start" x="351.67" y="-15.4" font-family="Times-12" font-size="14.00"> &#160;Providers</text>
<polygon fill="#fb8072" stroke="transparent" points="424,-10 424,-30 444,-30 444,-10 424,-10"/>
<text text-anchor="start" x="447.73" y="-15.4" font-family="Times-12" font-size="14.00"> &#160;Exports</text>
<g id="clust1" class="cluster">
<title>cluster_LogbooksModule</title>
<polygon fill="none" stroke="black" stroke-dasharray="1,5" points="8,-70 8,-268 524,-268 524,-70 8,-70"/>
</g>
<g id="clust3" class="cluster">
<title>cluster_LogbooksModule_imports</title>
<polygon fill="none" stroke="black" points="386,-78 386,-130 516,-130 516,-78 386,-78"/>
</g>
<g id="clust4" class="cluster">
<title>cluster_LogbooksModule_exports</title>
<polygon fill="none" stroke="black" points="218,-208 218,-260 352,-260 352,-208 218,-208"/>
</g>
<g id="clust6" class="cluster">
<title>cluster_LogbooksModule_providers</title>
<polygon fill="none" stroke="black" points="16,-78 16,-130 378,-130 378,-78 16,-78"/>
</g>
<!-- ProposalsModule -->
<g id="node1" class="node">
<title>ProposalsModule</title>
<polygon fill="#8dd3c7" stroke="black" points="507.99,-122 504.99,-126 483.99,-126 480.99,-122 394.01,-122 394.01,-86 507.99,-86 507.99,-122"/>
<text text-anchor="middle" x="451" y="-99.8" font-family="Times,serif" font-size="14.00">ProposalsModule</text>
</g>
<!-- LogbooksModule -->
<g id="node2" class="node">
<title>LogbooksModule</title>
<polygon fill="#8dd3c7" stroke="black" points="342.55,-187 339.55,-191 318.55,-191 315.55,-187 227.45,-187 227.45,-151 342.55,-151 342.55,-187"/>
<text text-anchor="middle" x="285" y="-164.8" font-family="Times,serif" font-size="14.00">LogbooksModule</text>
</g>
<!-- ProposalsModule&#45;&gt;LogbooksModule -->
<g id="edge1" class="edge">
<title>ProposalsModule&#45;&gt;LogbooksModule</title>
<path fill="none" stroke="black" d="M451,-122.11C451,-141.34 451,-169 451,-169 451,-169 352.59,-169 352.59,-169"/>
<polygon fill="black" stroke="black" points="352.59,-165.5 342.59,-169 352.59,-172.5 352.59,-165.5"/>
</g>
<!-- LogbooksService  -->
<g id="node3" class="node">
<title>LogbooksService </title>
<polygon fill="#fb8072" stroke="black" points="343.98,-252 226.02,-252 226.02,-216 343.98,-216 343.98,-252"/>
<text text-anchor="middle" x="285" y="-229.8" font-family="Times,serif" font-size="14.00">LogbooksService </text>
</g>
<!-- LogbooksModule&#45;&gt;LogbooksService  -->
<g id="edge2" class="edge">
<title>LogbooksModule&#45;&gt;LogbooksService </title>
<path fill="none" stroke="black" stroke-dasharray="5,2" d="M285,-187.11C285,-187.11 285,-205.99 285,-205.99"/>
<polygon fill="black" stroke="black" points="281.5,-205.99 285,-215.99 288.5,-205.99 281.5,-205.99"/>
</g>
<!-- CaslAbilityFactory -->
<g id="node4" class="node">
<title>CaslAbilityFactory</title>
<ellipse fill="#fdb462" stroke="black" cx="285" cy="-104" rx="85.13" ry="18"/>
<text text-anchor="middle" x="285" y="-99.8" font-family="Times,serif" font-size="14.00">CaslAbilityFactory</text>
</g>
<!-- CaslAbilityFactory&#45;&gt;LogbooksModule -->
<g id="edge3" class="edge">
<title>CaslAbilityFactory&#45;&gt;LogbooksModule</title>
<path fill="none" stroke="black" d="M285,-122.11C285,-122.11 285,-140.99 285,-140.99"/>
<polygon fill="black" stroke="black" points="281.5,-140.99 285,-150.99 288.5,-140.99 281.5,-140.99"/>
</g>
<!-- LogbooksService -->
<g id="node5" class="node">
<title>LogbooksService</title>
<ellipse fill="#fdb462" stroke="black" cx="103" cy="-104" rx="78.74" ry="18"/>
<text text-anchor="middle" x="103" y="-99.8" font-family="Times,serif" font-size="14.00">LogbooksService</text>
</g>
<!-- LogbooksService&#45;&gt;LogbooksModule -->
<g id="edge4" class="edge">
<title>LogbooksService&#45;&gt;LogbooksModule</title>
<path fill="none" stroke="black" d="M103,-122.11C103,-141.34 103,-169 103,-169 103,-169 217.41,-169 217.41,-169"/>
<polygon fill="black" stroke="black" points="217.41,-172.5 227.41,-169 217.41,-165.5 217.41,-172.5"/>
</g>
</g>
</svg>
