<?xml version="1.0" encoding="UTF-8" standalone="no"?>
<!DOCTYPE svg PUBLIC "-//W3C//DTD SVG 1.1//EN"
 "http://www.w3.org/Graphics/SVG/1.1/DTD/svg11.dtd">
<!-- Generated by graphviz version 2.47.0 (20210316.0004)
 -->
<!-- Title: dependencies Pages: 1 -->
<svg width="847pt" height="211pt"
 viewBox="0.00 0.00 847.00 211.00" xmlns="http://www.w3.org/2000/svg" xmlns:xlink="http://www.w3.org/1999/xlink">
<g id="graph0" class="graph" transform="scale(1 1) rotate(0) translate(4 207)">
<title>dependencies</title>
<polygon fill="white" stroke="transparent" points="-4,4 -4,-207 843,-207 843,4 -4,4"/>
<text text-anchor="start" x="398.51" y="-42.4" font-family="Times-12" font-weight="bold" font-size="14.00">Legend</text>
<polygon fill="#ffffb3" stroke="transparent" points="185.5,-10 185.5,-30 205.5,-30 205.5,-10 185.5,-10"/>
<text text-anchor="start" x="209.13" y="-15.4" font-family="Times-12" font-size="14.00"> &#160;Declarations</text>
<polygon fill="#8dd3c7" stroke="transparent" points="298.5,-10 298.5,-30 318.5,-30 318.5,-10 298.5,-10"/>
<text text-anchor="start" x="322.23" y="-15.4" font-family="Times-12" font-size="14.00"> &#160;Module</text>
<polygon fill="#80b1d3" stroke="transparent" points="384.5,-10 384.5,-30 404.5,-30 404.5,-10 384.5,-10"/>
<text text-anchor="start" x="408.28" y="-15.4" font-family="Times-12" font-size="14.00"> &#160;Bootstrap</text>
<polygon fill="#fdb462" stroke="transparent" points="481.5,-10 481.5,-30 501.5,-30 501.5,-10 481.5,-10"/>
<text text-anchor="start" x="505.17" y="-15.4" font-family="Times-12" font-size="14.00"> &#160;Providers</text>
<polygon fill="#fb8072" stroke="transparent" points="577.5,-10 577.5,-30 597.5,-30 597.5,-10 577.5,-10"/>
<text text-anchor="start" x="601.23" y="-15.4" font-family="Times-12" font-size="14.00"> &#160;Exports</text>
<g id="clust1" class="cluster">
<title>cluster_PublishedDataModule</title>
<polygon fill="none" stroke="black" stroke-dasharray="1,5" points="8,-70 8,-195 831,-195 831,-70 8,-70"/>
</g>
<g id="clust3" class="cluster">
<title>cluster_PublishedDataModule_imports</title>
<polygon fill="none" stroke="black" points="420,-78 420,-130 823,-130 823,-78 420,-78"/>
</g>
<g id="clust6" class="cluster">
<title>cluster_PublishedDataModule_providers</title>
<polygon fill="none" stroke="black" points="16,-78 16,-130 412,-130 412,-78 16,-78"/>
</g>
<!-- AttachmentsModule -->
<g id="node1" class="node">
<title>AttachmentsModule</title>
<polygon fill="#8dd3c7" stroke="black" points="815.31,-122 812.31,-126 791.31,-126 788.31,-122 684.69,-122 684.69,-86 815.31,-86 815.31,-122"/>
<text text-anchor="middle" x="750" y="-99.8" font-family="Times,serif" font-size="14.00">AttachmentsModule</text>
</g>
<!-- PublishedDataModule -->
<g id="node4" class="node">
<title>PublishedDataModule</title>
<polygon fill="#8dd3c7" stroke="black" points="555.7,-187 552.7,-191 531.7,-191 528.7,-187 414.3,-187 414.3,-151 555.7,-151 555.7,-187"/>
<text text-anchor="middle" x="485" y="-164.8" font-family="Times,serif" font-size="14.00">PublishedDataModule</text>
</g>
<!-- AttachmentsModule&#45;&gt;PublishedDataModule -->
<g id="edge1" class="edge">
<title>AttachmentsModule&#45;&gt;PublishedDataModule</title>
<path fill="none" stroke="black" d="M750,-122.11C750,-141.34 750,-169 750,-169 750,-169 565.67,-169 565.67,-169"/>
<polygon fill="black" stroke="black" points="565.67,-165.5 555.67,-169 565.67,-172.5 565.67,-165.5"/>
</g>
<!-- DatasetsModule -->
<g id="node2" class="node">
<title>DatasetsModule</title>
<polygon fill="#8dd3c7" stroke="black" points="666.47,-122 663.47,-126 642.47,-126 639.47,-122 559.53,-122 559.53,-86 666.47,-86 666.47,-122"/>
<text text-anchor="middle" x="613" y="-99.8" font-family="Times,serif" font-size="14.00">DatasetsModule</text>
</g>
<!-- DatasetsModule&#45;&gt;PublishedDataModule -->
<g id="edge2" class="edge">
<title>DatasetsModule&#45;&gt;PublishedDataModule</title>
<path fill="none" stroke="black" d="M559.4,-104C553.06,-104 548.8,-104 548.8,-104 548.8,-104 548.8,-140.89 548.8,-140.89"/>
<polygon fill="black" stroke="black" points="545.3,-140.89 548.8,-150.89 552.3,-140.89 545.3,-140.89"/>
</g>
<!-- ProposalsModule -->
<g id="node3" class="node">
<title>ProposalsModule</title>
<polygon fill="#8dd3c7" stroke="black" points="541.99,-122 538.99,-126 517.99,-126 514.99,-122 428.01,-122 428.01,-86 541.99,-86 541.99,-122"/>
<text text-anchor="middle" x="485" y="-99.8" font-family="Times,serif" font-size="14.00">ProposalsModule</text>
</g>
<!-- ProposalsModule&#45;&gt;PublishedDataModule -->
<g id="edge3" class="edge">
<title>ProposalsModule&#45;&gt;PublishedDataModule</title>
<path fill="none" stroke="black" d="M485,-122.11C485,-122.11 485,-140.99 485,-140.99"/>
<polygon fill="black" stroke="black" points="481.5,-140.99 485,-150.99 488.5,-140.99 481.5,-140.99"/>
</g>
<!-- CaslAbilityFactory -->
<g id="node5" class="node">
<title>CaslAbilityFactory</title>
<ellipse fill="#fdb462" stroke="black" cx="319" cy="-104" rx="85.13" ry="18"/>
<text text-anchor="middle" x="319" y="-99.8" font-family="Times,serif" font-size="14.00">CaslAbilityFactory</text>
</g>
<!-- CaslAbilityFactory&#45;&gt;PublishedDataModule -->
<g id="edge4" class="edge">
<title>CaslAbilityFactory&#45;&gt;PublishedDataModule</title>
<path fill="none" stroke="black" d="M404.33,-104C414.41,-104 421.2,-104 421.2,-104 421.2,-104 421.2,-140.89 421.2,-140.89"/>
<polygon fill="black" stroke="black" points="417.7,-140.89 421.2,-150.89 424.7,-140.89 417.7,-140.89"/>
</g>
<!-- PublishedDataService -->
<g id="node6" class="node">
<title>PublishedDataService</title>
<ellipse fill="#fdb462" stroke="black" cx="120" cy="-104" rx="96.12" ry="18"/>
<text text-anchor="middle" x="120" y="-99.8" font-family="Times,serif" font-size="14.00">PublishedDataService</text>
</g>
<!-- PublishedDataService&#45;&gt;PublishedDataModule -->
<g id="edge5" class="edge">
<title>PublishedDataService&#45;&gt;PublishedDataModule</title>
<path fill="none" stroke="black" d="M120,-122.11C120,-141.34 120,-169 120,-169 120,-169 404.19,-169 404.19,-169"/>
<polygon fill="black" stroke="black" points="404.19,-172.5 414.19,-169 404.19,-165.5 404.19,-172.5"/>
</g>
</g>
</svg>
