<?xml version="1.0" encoding="UTF-8" standalone="no"?>
<!DOCTYPE svg PUBLIC "-//W3C//DTD SVG 1.1//EN"
 "http://www.w3.org/Graphics/SVG/1.1/DTD/svg11.dtd">
<!-- Generated by graphviz version 2.47.0 (20210316.0004)
 -->
<!-- Title: dependencies Pages: 1 -->
<svg width="607pt" height="284pt"
 viewBox="0.00 0.00 607.00 284.00" xmlns="http://www.w3.org/2000/svg" xmlns:xlink="http://www.w3.org/1999/xlink">
<g id="graph0" class="graph" transform="scale(1 1) rotate(0) translate(4 280)">
<title>dependencies</title>
<polygon fill="white" stroke="transparent" points="-4,4 -4,-280 603,-280 603,4 -4,4"/>
<text text-anchor="start" x="278.51" y="-42.4" font-family="Times-12" font-weight="bold" font-size="14.00">Legend</text>
<polygon fill="#ffffb3" stroke="transparent" points="65.5,-10 65.5,-30 85.5,-30 85.5,-10 65.5,-10"/>
<text text-anchor="start" x="89.13" y="-15.4" font-family="Times-12" font-size="14.00"> &#160;Declarations</text>
<polygon fill="#8dd3c7" stroke="transparent" points="178.5,-10 178.5,-30 198.5,-30 198.5,-10 178.5,-10"/>
<text text-anchor="start" x="202.23" y="-15.4" font-family="Times-12" font-size="14.00"> &#160;Module</text>
<polygon fill="#80b1d3" stroke="transparent" points="264.5,-10 264.5,-30 284.5,-30 284.5,-10 264.5,-10"/>
<text text-anchor="start" x="288.28" y="-15.4" font-family="Times-12" font-size="14.00"> &#160;Bootstrap</text>
<polygon fill="#fdb462" stroke="transparent" points="361.5,-10 361.5,-30 381.5,-30 381.5,-10 361.5,-10"/>
<text text-anchor="start" x="385.17" y="-15.4" font-family="Times-12" font-size="14.00"> &#160;Providers</text>
<polygon fill="#fb8072" stroke="transparent" points="457.5,-10 457.5,-30 477.5,-30 477.5,-10 457.5,-10"/>
<text text-anchor="start" x="481.23" y="-15.4" font-family="Times-12" font-size="14.00"> &#160;Exports</text>
<g id="clust1" class="cluster">
<title>cluster_PoliciesModule</title>
<polygon fill="none" stroke="black" stroke-dasharray="1,5" points="8,-70 8,-268 591,-268 591,-70 8,-70"/>
</g>
<g id="clust3" class="cluster">
<title>cluster_PoliciesModule_imports</title>
<polygon fill="none" stroke="black" points="370,-78 370,-130 583,-130 583,-78 370,-78"/>
</g>
<g id="clust4" class="cluster">
<title>cluster_PoliciesModule_exports</title>
<polygon fill="none" stroke="black" points="285,-208 285,-260 407,-260 407,-208 285,-208"/>
</g>
<g id="clust6" class="cluster">
<title>cluster_PoliciesModule_providers</title>
<polygon fill="none" stroke="black" points="16,-78 16,-130 362,-130 362,-78 16,-78"/>
</g>
<!-- AuthModule -->
<g id="node1" class="node">
<title>AuthModule</title>
<polygon fill="#8dd3c7" stroke="black" points="574.55,-122 571.55,-126 550.55,-126 547.55,-122 487.45,-122 487.45,-86 574.55,-86 574.55,-122"/>
<text text-anchor="middle" x="531" y="-99.8" font-family="Times,serif" font-size="14.00">AuthModule</text>
</g>
<!-- PoliciesModule -->
<g id="node3" class="node">
<title>PoliciesModule</title>
<polygon fill="#8dd3c7" stroke="black" points="397.88,-187 394.88,-191 373.88,-191 370.88,-187 294.12,-187 294.12,-151 397.88,-151 397.88,-187"/>
<text text-anchor="middle" x="346" y="-164.8" font-family="Times,serif" font-size="14.00">PoliciesModule</text>
</g>
<!-- AuthModule&#45;&gt;PoliciesModule -->
<g id="edge1" class="edge">
<title>AuthModule&#45;&gt;PoliciesModule</title>
<path fill="none" stroke="black" d="M531,-122.11C531,-141.34 531,-169 531,-169 531,-169 408.03,-169 408.03,-169"/>
<polygon fill="black" stroke="black" points="408.03,-165.5 398.03,-169 408.03,-172.5 408.03,-165.5"/>
</g>
<!-- UsersModule -->
<g id="node2" class="node">
<title>UsersModule</title>
<polygon fill="#8dd3c7" stroke="black" points="469.92,-122 466.92,-126 445.92,-126 442.92,-122 378.08,-122 378.08,-86 469.92,-86 469.92,-122"/>
<text text-anchor="middle" x="424" y="-99.8" font-family="Times,serif" font-size="14.00">UsersModule</text>
</g>
<!-- UsersModule&#45;&gt;PoliciesModule -->
<g id="edge2" class="edge">
<title>UsersModule&#45;&gt;PoliciesModule</title>
<path fill="none" stroke="black" d="M388.11,-122.11C388.11,-122.11 388.11,-140.99 388.11,-140.99"/>
<polygon fill="black" stroke="black" points="384.61,-140.99 388.11,-150.99 391.61,-140.99 384.61,-140.99"/>
</g>
<!-- PoliciesService  -->
<g id="node4" class="node">
<title>PoliciesService </title>
<polygon fill="#fb8072" stroke="black" points="398.81,-252 293.19,-252 293.19,-216 398.81,-216 398.81,-252"/>
<text text-anchor="middle" x="346" y="-229.8" font-family="Times,serif" font-size="14.00">PoliciesService </text>
</g>
<!-- PoliciesModule&#45;&gt;PoliciesService  -->
<g id="edge3" class="edge">
<title>PoliciesModule&#45;&gt;PoliciesService </title>
<path fill="none" stroke="black" stroke-dasharray="5,2" d="M346,-187.11C346,-187.11 346,-205.99 346,-205.99"/>
<polygon fill="black" stroke="black" points="342.5,-205.99 346,-215.99 349.5,-205.99 342.5,-205.99"/>
</g>
<!-- CaslAbilityFactory -->
<g id="node5" class="node">
<title>CaslAbilityFactory</title>
<ellipse fill="#fdb462" stroke="black" cx="269" cy="-104" rx="85.13" ry="18"/>
<text text-anchor="middle" x="269" y="-99.8" font-family="Times,serif" font-size="14.00">CaslAbilityFactory</text>
</g>
<!-- CaslAbilityFactory&#45;&gt;PoliciesModule -->
<g id="edge4" class="edge">
<title>CaslAbilityFactory&#45;&gt;PoliciesModule</title>
<path fill="none" stroke="black" d="M324.06,-117.78C324.06,-117.78 324.06,-140.55 324.06,-140.55"/>
<polygon fill="black" stroke="black" points="320.56,-140.55 324.06,-150.55 327.56,-140.55 320.56,-140.55"/>
</g>
<!-- PoliciesService -->
<g id="node6" class="node">
<title>PoliciesService</title>
<ellipse fill="#fdb462" stroke="black" cx="95" cy="-104" rx="70.64" ry="18"/>
<text text-anchor="middle" x="95" y="-99.8" font-family="Times,serif" font-size="14.00">PoliciesService</text>
</g>
<!-- PoliciesService&#45;&gt;PoliciesModule -->
<g id="edge5" class="edge">
<title>PoliciesService&#45;&gt;PoliciesModule</title>
<path fill="none" stroke="black" d="M95,-122.11C95,-141.34 95,-169 95,-169 95,-169 283.99,-169 283.99,-169"/>
<polygon fill="black" stroke="black" points="283.99,-172.5 293.99,-169 283.99,-165.5 283.99,-172.5"/>
</g>
</g>
</svg>
