<?xml version="1.0" encoding="UTF-8" standalone="no"?>
<!DOCTYPE svg PUBLIC "-//W3C//DTD SVG 1.1//EN"
 "http://www.w3.org/Graphics/SVG/1.1/DTD/svg11.dtd">
<!-- Generated by graphviz version 2.47.0 (20210316.0004)
 -->
<!-- Title: dependencies Pages: 1 -->
<svg width="669pt" height="211pt"
 viewBox="0.00 0.00 669.00 211.00" xmlns="http://www.w3.org/2000/svg" xmlns:xlink="http://www.w3.org/1999/xlink">
<g id="graph0" class="graph" transform="scale(1 1) rotate(0) translate(4 207)">
<title>dependencies</title>
<polygon fill="white" stroke="transparent" points="-4,4 -4,-207 665,-207 665,4 -4,4"/>
<text text-anchor="start" x="309.51" y="-42.4" font-family="Times-12" font-weight="bold" font-size="14.00">Legend</text>
<polygon fill="#ffffb3" stroke="transparent" points="96.5,-10 96.5,-30 116.5,-30 116.5,-10 96.5,-10"/>
<text text-anchor="start" x="120.13" y="-15.4" font-family="Times-12" font-size="14.00"> &#160;Declarations</text>
<polygon fill="#8dd3c7" stroke="transparent" points="209.5,-10 209.5,-30 229.5,-30 229.5,-10 209.5,-10"/>
<text text-anchor="start" x="233.23" y="-15.4" font-family="Times-12" font-size="14.00"> &#160;Module</text>
<polygon fill="#80b1d3" stroke="transparent" points="295.5,-10 295.5,-30 315.5,-30 315.5,-10 295.5,-10"/>
<text text-anchor="start" x="319.28" y="-15.4" font-family="Times-12" font-size="14.00"> &#160;Bootstrap</text>
<polygon fill="#fdb462" stroke="transparent" points="392.5,-10 392.5,-30 412.5,-30 412.5,-10 392.5,-10"/>
<text text-anchor="start" x="416.17" y="-15.4" font-family="Times-12" font-size="14.00"> &#160;Providers</text>
<polygon fill="#fb8072" stroke="transparent" points="488.5,-10 488.5,-30 508.5,-30 508.5,-10 488.5,-10"/>
<text text-anchor="start" x="512.23" y="-15.4" font-family="Times-12" font-size="14.00"> &#160;Exports</text>
<g id="clust1" class="cluster">
<title>cluster_SamplesModule</title>
<polygon fill="none" stroke="black" stroke-dasharray="1,5" points="8,-70 8,-195 653,-195 653,-70 8,-70"/>
</g>
<g id="clust6" class="cluster">
<title>cluster_SamplesModule_providers</title>
<polygon fill="none" stroke="black" points="295,-78 295,-130 645,-130 645,-78 295,-78"/>
</g>
<g id="clust3" class="cluster">
<title>cluster_SamplesModule_imports</title>
<polygon fill="none" stroke="black" points="16,-78 16,-130 287,-130 287,-78 16,-78"/>
</g>
<!-- AttachmentsModule -->
<g id="node1" class="node">
<title>AttachmentsModule</title>
<polygon fill="#8dd3c7" stroke="black" points="279.31,-122 276.31,-126 255.31,-126 252.31,-122 148.69,-122 148.69,-86 279.31,-86 279.31,-122"/>
<text text-anchor="middle" x="214" y="-99.8" font-family="Times,serif" font-size="14.00">AttachmentsModule</text>
</g>
<!-- SamplesModule -->
<g id="node3" class="node">
<title>SamplesModule</title>
<polygon fill="#8dd3c7" stroke="black" points="348.49,-187 345.49,-191 324.49,-191 321.49,-187 241.51,-187 241.51,-151 348.49,-151 348.49,-187"/>
<text text-anchor="middle" x="295" y="-164.8" font-family="Times,serif" font-size="14.00">SamplesModule</text>
</g>
<!-- AttachmentsModule&#45;&gt;SamplesModule -->
<g id="edge1" class="edge">
<title>AttachmentsModule&#45;&gt;SamplesModule</title>
<path fill="none" stroke="black" d="M260.33,-122.11C260.33,-122.11 260.33,-140.99 260.33,-140.99"/>
<polygon fill="black" stroke="black" points="256.83,-140.99 260.33,-150.99 263.83,-140.99 256.83,-140.99"/>
</g>
<!-- DatasetsModule -->
<g id="node2" class="node">
<title>DatasetsModule</title>
<polygon fill="#8dd3c7" stroke="black" points="130.47,-122 127.47,-126 106.47,-126 103.47,-122 23.53,-122 23.53,-86 130.47,-86 130.47,-122"/>
<text text-anchor="middle" x="77" y="-99.8" font-family="Times,serif" font-size="14.00">DatasetsModule</text>
</g>
<!-- DatasetsModule&#45;&gt;SamplesModule -->
<g id="edge2" class="edge">
<title>DatasetsModule&#45;&gt;SamplesModule</title>
<path fill="none" stroke="black" d="M77,-122.11C77,-141.34 77,-169 77,-169 77,-169 231.39,-169 231.39,-169"/>
<polygon fill="black" stroke="black" points="231.39,-172.5 241.39,-169 231.39,-165.5 231.39,-172.5"/>
</g>
<!-- CaslAbilityFactory -->
<g id="node4" class="node">
<title>CaslAbilityFactory</title>
<ellipse fill="#fdb462" stroke="black" cx="552" cy="-104" rx="85.13" ry="18"/>
<text text-anchor="middle" x="552" y="-99.8" font-family="Times,serif" font-size="14.00">CaslAbilityFactory</text>
</g>
<!-- CaslAbilityFactory&#45;&gt;SamplesModule -->
<g id="edge3" class="edge">
<title>CaslAbilityFactory&#45;&gt;SamplesModule</title>
<path fill="none" stroke="black" d="M552,-122.11C552,-141.34 552,-169 552,-169 552,-169 358.56,-169 358.56,-169"/>
<polygon fill="black" stroke="black" points="358.56,-165.5 348.56,-169 358.56,-172.5 358.56,-165.5"/>
</g>
<!-- SamplesService -->
<g id="node5" class="node">
<title>SamplesService</title>
<ellipse fill="#fdb462" stroke="black" cx="376" cy="-104" rx="72.93" ry="18"/>
<text text-anchor="middle" x="376" y="-99.8" font-family="Times,serif" font-size="14.00">SamplesService</text>
</g>
<!-- SamplesService&#45;&gt;SamplesModule -->
<g id="edge4" class="edge">
<title>SamplesService&#45;&gt;SamplesModule</title>
<path fill="none" stroke="black" d="M325.89,-117.15C325.89,-117.15 325.89,-140.69 325.89,-140.69"/>
<polygon fill="black" stroke="black" points="322.39,-140.69 325.89,-150.69 329.39,-140.69 322.39,-140.69"/>
</g>
</g>
</svg>
