<?xml version="1.0" encoding="UTF-8" standalone="no"?>
<!DOCTYPE svg PUBLIC "-//W3C//DTD SVG 1.1//EN"
 "http://www.w3.org/Graphics/SVG/1.1/DTD/svg11.dtd">
<!-- Generated by graphviz version 2.47.0 (20210316.0004)
 -->
<!-- Title: dependencies Pages: 1 -->
<svg width="554pt" height="284pt"
 viewBox="0.00 0.00 554.00 284.00" xmlns="http://www.w3.org/2000/svg" xmlns:xlink="http://www.w3.org/1999/xlink">
<g id="graph0" class="graph" transform="scale(1 1) rotate(0) translate(4 280)">
<title>dependencies</title>
<polygon fill="white" stroke="transparent" points="-4,4 -4,-280 550,-280 550,4 -4,4"/>
<text text-anchor="start" x="252.01" y="-42.4" font-family="Times-12" font-weight="bold" font-size="14.00">Legend</text>
<polygon fill="#ffffb3" stroke="transparent" points="39,-10 39,-30 59,-30 59,-10 39,-10"/>
<text text-anchor="start" x="62.63" y="-15.4" font-family="Times-12" font-size="14.00"> &#160;Declarations</text>
<polygon fill="#8dd3c7" stroke="transparent" points="152,-10 152,-30 172,-30 172,-10 152,-10"/>
<text text-anchor="start" x="175.73" y="-15.4" font-family="Times-12" font-size="14.00"> &#160;Module</text>
<polygon fill="#80b1d3" stroke="transparent" points="238,-10 238,-30 258,-30 258,-10 238,-10"/>
<text text-anchor="start" x="261.78" y="-15.4" font-family="Times-12" font-size="14.00"> &#160;Bootstrap</text>
<polygon fill="#fdb462" stroke="transparent" points="335,-10 335,-30 355,-30 355,-10 335,-10"/>
<text text-anchor="start" x="358.67" y="-15.4" font-family="Times-12" font-size="14.00"> &#160;Providers</text>
<polygon fill="#fb8072" stroke="transparent" points="431,-10 431,-30 451,-30 451,-10 431,-10"/>
<text text-anchor="start" x="454.73" y="-15.4" font-family="Times-12" font-size="14.00"> &#160;Exports</text>
<g id="clust1" class="cluster">
<title>cluster_ProposalsModule</title>
<polygon fill="none" stroke="black" stroke-dasharray="1,5" points="8,-70 8,-268 538,-268 538,-70 8,-70"/>
</g>
<g id="clust3" class="cluster">
<title>cluster_ProposalsModule_imports</title>
<polygon fill="none" stroke="black" points="384,-78 384,-130 530,-130 530,-78 384,-78"/>
</g>
<g id="clust4" class="cluster">
<title>cluster_ProposalsModule_exports</title>
<polygon fill="none" stroke="black" points="217,-208 217,-260 349,-260 349,-208 217,-208"/>
</g>
<g id="clust6" class="cluster">
<title>cluster_ProposalsModule_providers</title>
<polygon fill="none" stroke="black" points="16,-78 16,-130 376,-130 376,-78 16,-78"/>
</g>
<!-- AttachmentsModule -->
<g id="node1" class="node">
<title>AttachmentsModule</title>
<polygon fill="#8dd3c7" stroke="black" points="522.31,-122 519.31,-126 498.31,-126 495.31,-122 391.69,-122 391.69,-86 522.31,-86 522.31,-122"/>
<text text-anchor="middle" x="457" y="-99.8" font-family="Times,serif" font-size="14.00">AttachmentsModule</text>
</g>
<!-- ProposalsModule -->
<g id="node2" class="node">
<title>ProposalsModule</title>
<polygon fill="#8dd3c7" stroke="black" points="339.99,-187 336.99,-191 315.99,-191 312.99,-187 226.01,-187 226.01,-151 339.99,-151 339.99,-187"/>
<text text-anchor="middle" x="283" y="-164.8" font-family="Times,serif" font-size="14.00">ProposalsModule</text>
</g>
<!-- AttachmentsModule&#45;&gt;ProposalsModule -->
<g id="edge1" class="edge">
<title>AttachmentsModule&#45;&gt;ProposalsModule</title>
<path fill="none" stroke="black" d="M457,-122.11C457,-141.34 457,-169 457,-169 457,-169 350.46,-169 350.46,-169"/>
<polygon fill="black" stroke="black" points="350.46,-165.5 340.46,-169 350.46,-172.5 350.46,-165.5"/>
</g>
<!-- ProposalsService  -->
<g id="node3" class="node">
<title>ProposalsService </title>
<polygon fill="#fb8072" stroke="black" points="340.92,-252 225.08,-252 225.08,-216 340.92,-216 340.92,-252"/>
<text text-anchor="middle" x="283" y="-229.8" font-family="Times,serif" font-size="14.00">ProposalsService </text>
</g>
<!-- ProposalsModule&#45;&gt;ProposalsService  -->
<g id="edge2" class="edge">
<title>ProposalsModule&#45;&gt;ProposalsService </title>
<path fill="none" stroke="black" stroke-dasharray="5,2" d="M283,-187.11C283,-187.11 283,-205.99 283,-205.99"/>
<polygon fill="black" stroke="black" points="279.5,-205.99 283,-215.99 286.5,-205.99 279.5,-205.99"/>
</g>
<!-- CaslAbilityFactory -->
<g id="node4" class="node">
<title>CaslAbilityFactory</title>
<ellipse fill="#fdb462" stroke="black" cx="283" cy="-104" rx="85.13" ry="18"/>
<text text-anchor="middle" x="283" y="-99.8" font-family="Times,serif" font-size="14.00">CaslAbilityFactory</text>
</g>
<!-- CaslAbilityFactory&#45;&gt;ProposalsModule -->
<g id="edge3" class="edge">
<title>CaslAbilityFactory&#45;&gt;ProposalsModule</title>
<path fill="none" stroke="black" d="M283,-122.11C283,-122.11 283,-140.99 283,-140.99"/>
<polygon fill="black" stroke="black" points="279.5,-140.99 283,-150.99 286.5,-140.99 279.5,-140.99"/>
</g>
<!-- ProposalsService -->
<g id="node5" class="node">
<title>ProposalsService</title>
<ellipse fill="#fdb462" stroke="black" cx="102" cy="-104" rx="77.58" ry="18"/>
<text text-anchor="middle" x="102" y="-99.8" font-family="Times,serif" font-size="14.00">ProposalsService</text>
</g>
<!-- ProposalsService&#45;&gt;ProposalsModule -->
<g id="edge4" class="edge">
<title>ProposalsService&#45;&gt;ProposalsModule</title>
<path fill="none" stroke="black" d="M102,-122.11C102,-141.34 102,-169 102,-169 102,-169 215.73,-169 215.73,-169"/>
<polygon fill="black" stroke="black" points="215.73,-172.5 225.73,-169 215.73,-165.5 215.73,-172.5"/>
</g>
</g>
</svg>
