<?xml version="1.0" encoding="UTF-8" standalone="no"?>
<!DOCTYPE svg PUBLIC "-//W3C//DTD SVG 1.1//EN"
 "http://www.w3.org/Graphics/SVG/1.1/DTD/svg11.dtd">
<!-- Generated by graphviz version 2.47.0 (20210316.0004)
 -->
<!-- Title: dependencies Pages: 1 -->
<svg width="907pt" height="211pt"
 viewBox="0.00 0.00 907.00 211.00" xmlns="http://www.w3.org/2000/svg" xmlns:xlink="http://www.w3.org/1999/xlink">
<g id="graph0" class="graph" transform="scale(1 1) rotate(0) translate(4 207)">
<title>dependencies</title>
<polygon fill="white" stroke="transparent" points="-4,4 -4,-207 903,-207 903,4 -4,4"/>
<text text-anchor="start" x="428.51" y="-42.4" font-family="Times-12" font-weight="bold" font-size="14.00">Legend</text>
<polygon fill="#ffffb3" stroke="transparent" points="215.5,-10 215.5,-30 235.5,-30 235.5,-10 215.5,-10"/>
<text text-anchor="start" x="239.13" y="-15.4" font-family="Times-12" font-size="14.00"> &#160;Declarations</text>
<polygon fill="#8dd3c7" stroke="transparent" points="328.5,-10 328.5,-30 348.5,-30 348.5,-10 328.5,-10"/>
<text text-anchor="start" x="352.23" y="-15.4" font-family="Times-12" font-size="14.00"> &#160;Module</text>
<polygon fill="#80b1d3" stroke="transparent" points="414.5,-10 414.5,-30 434.5,-30 434.5,-10 414.5,-10"/>
<text text-anchor="start" x="438.28" y="-15.4" font-family="Times-12" font-size="14.00"> &#160;Bootstrap</text>
<polygon fill="#fdb462" stroke="transparent" points="511.5,-10 511.5,-30 531.5,-30 531.5,-10 511.5,-10"/>
<text text-anchor="start" x="535.17" y="-15.4" font-family="Times-12" font-size="14.00"> &#160;Providers</text>
<polygon fill="#fb8072" stroke="transparent" points="607.5,-10 607.5,-30 627.5,-30 627.5,-10 607.5,-10"/>
<text text-anchor="start" x="631.23" y="-15.4" font-family="Times-12" font-size="14.00"> &#160;Exports</text>
<g id="clust1" class="cluster">
<title>cluster_JobsModule</title>
<polygon fill="none" stroke="black" stroke-dasharray="1,5" points="8,-70 8,-195 891,-195 891,-70 8,-70"/>
</g>
<g id="clust6" class="cluster">
<title>cluster_JobsModule_providers</title>
<polygon fill="none" stroke="black" points="565,-78 565,-130 883,-130 883,-78 565,-78"/>
</g>
<g id="clust3" class="cluster">
<title>cluster_JobsModule_imports</title>
<polygon fill="none" stroke="black" points="16,-78 16,-130 557,-130 557,-78 16,-78"/>
</g>
<!-- CommonModule -->
<g id="node1" class="node">
<title>CommonModule</title>
<polygon fill="#8dd3c7" stroke="black" points="548.67,-122 545.67,-126 524.67,-126 521.67,-122 437.33,-122 437.33,-86 548.67,-86 548.67,-122"/>
<text text-anchor="middle" x="493" y="-99.8" font-family="Times,serif" font-size="14.00">CommonModule</text>
</g>
<!-- JobsModule -->
<g id="node5" class="node">
<title>JobsModule</title>
<polygon fill="#8dd3c7" stroke="black" points="471.44,-187 468.44,-191 447.44,-191 444.44,-187 386.56,-187 386.56,-151 471.44,-151 471.44,-187"/>
<text text-anchor="middle" x="429" y="-164.8" font-family="Times,serif" font-size="14.00">JobsModule</text>
</g>
<!-- CommonModule&#45;&gt;JobsModule -->
<g id="edge1" class="edge">
<title>CommonModule&#45;&gt;JobsModule</title>
<path fill="none" stroke="black" d="M454.19,-122.11C454.19,-122.11 454.19,-140.99 454.19,-140.99"/>
<polygon fill="black" stroke="black" points="450.69,-140.99 454.19,-150.99 457.69,-140.99 450.69,-140.99"/>
</g>
<!-- DatasetsModule -->
<g id="node2" class="node">
<title>DatasetsModule</title>
<polygon fill="#8dd3c7" stroke="black" points="419.47,-122 416.47,-126 395.47,-126 392.47,-122 312.53,-122 312.53,-86 419.47,-86 419.47,-122"/>
<text text-anchor="middle" x="366" y="-99.8" font-family="Times,serif" font-size="14.00">DatasetsModule</text>
</g>
<!-- DatasetsModule&#45;&gt;JobsModule -->
<g id="edge2" class="edge">
<title>DatasetsModule&#45;&gt;JobsModule</title>
<path fill="none" stroke="black" d="M403.13,-122.11C403.13,-122.11 403.13,-140.99 403.13,-140.99"/>
<polygon fill="black" stroke="black" points="399.63,-140.99 403.13,-150.99 406.63,-140.99 399.63,-140.99"/>
</g>
<!-- OrigDatablocksModule -->
<g id="node3" class="node">
<title>OrigDatablocksModule</title>
<polygon fill="#8dd3c7" stroke="black" points="294.18,-122 291.18,-126 270.18,-126 267.18,-122 145.82,-122 145.82,-86 294.18,-86 294.18,-122"/>
<text text-anchor="middle" x="220" y="-99.8" font-family="Times,serif" font-size="14.00">OrigDatablocksModule</text>
</g>
<!-- OrigDatablocksModule&#45;&gt;JobsModule -->
<g id="edge3" class="edge">
<title>OrigDatablocksModule&#45;&gt;JobsModule</title>
<path fill="none" stroke="black" d="M220,-122.02C220,-139.37 220,-163 220,-163 220,-163 376.71,-163 376.71,-163"/>
<polygon fill="black" stroke="black" points="376.71,-166.5 386.71,-163 376.71,-159.5 376.71,-166.5"/>
</g>
<!-- PoliciesModule -->
<g id="node4" class="node">
<title>PoliciesModule</title>
<polygon fill="#8dd3c7" stroke="black" points="127.88,-122 124.88,-126 103.88,-126 100.88,-122 24.12,-122 24.12,-86 127.88,-86 127.88,-122"/>
<text text-anchor="middle" x="76" y="-99.8" font-family="Times,serif" font-size="14.00">PoliciesModule</text>
</g>
<!-- PoliciesModule&#45;&gt;JobsModule -->
<g id="edge4" class="edge">
<title>PoliciesModule&#45;&gt;JobsModule</title>
<path fill="none" stroke="black" d="M76,-122.28C76,-143.32 76,-175 76,-175 76,-175 376.77,-175 376.77,-175"/>
<polygon fill="black" stroke="black" points="376.77,-178.5 386.77,-175 376.77,-171.5 376.77,-178.5"/>
</g>
<!-- CaslAbilityFactory -->
<g id="node6" class="node">
<title>CaslAbilityFactory</title>
<ellipse fill="#fdb462" stroke="black" cx="790" cy="-104" rx="85.13" ry="18"/>
<text text-anchor="middle" x="790" y="-99.8" font-family="Times,serif" font-size="14.00">CaslAbilityFactory</text>
</g>
<!-- CaslAbilityFactory&#45;&gt;JobsModule -->
<g id="edge5" class="edge">
<title>CaslAbilityFactory&#45;&gt;JobsModule</title>
<path fill="none" stroke="black" d="M790,-122.28C790,-143.32 790,-175 790,-175 790,-175 481.47,-175 481.47,-175"/>
<polygon fill="black" stroke="black" points="481.47,-171.5 471.47,-175 481.47,-178.5 481.47,-171.5"/>
</g>
<!-- JobsService -->
<g id="node7" class="node">
<title>JobsService</title>
<ellipse fill="#fdb462" stroke="black" cx="630" cy="-104" rx="57.32" ry="18"/>
<text text-anchor="middle" x="630" y="-99.8" font-family="Times,serif" font-size="14.00">JobsService</text>
</g>
<!-- JobsService&#45;&gt;JobsModule -->
<g id="edge6" class="edge">
<title>JobsService&#45;&gt;JobsModule</title>
<path fill="none" stroke="black" d="M630,-122.02C630,-139.37 630,-163 630,-163 630,-163 481.63,-163 481.63,-163"/>
<polygon fill="black" stroke="black" points="481.63,-159.5 471.63,-163 481.63,-166.5 481.63,-159.5"/>
</g>
</g>
</svg>
