<?xml version="1.0" encoding="UTF-8" standalone="no"?>
<!DOCTYPE svg PUBLIC "-//W3C//DTD SVG 1.1//EN"
 "http://www.w3.org/Graphics/SVG/1.1/DTD/svg11.dtd">
<!-- Generated by graphviz version 2.47.0 (20210316.0004)
 -->
<!-- Title: dependencies Pages: 1 -->
<svg width="852pt" height="284pt"
 viewBox="0.00 0.00 852.00 284.00" xmlns="http://www.w3.org/2000/svg" xmlns:xlink="http://www.w3.org/1999/xlink">
<g id="graph0" class="graph" transform="scale(1 1) rotate(0) translate(4 280)">
<title>dependencies</title>
<polygon fill="white" stroke="transparent" points="-4,4 -4,-280 848,-280 848,4 -4,4"/>
<text text-anchor="start" x="401.01" y="-42.4" font-family="Times-12" font-weight="bold" font-size="14.00">Legend</text>
<polygon fill="#ffffb3" stroke="transparent" points="188,-10 188,-30 208,-30 208,-10 188,-10"/>
<text text-anchor="start" x="211.63" y="-15.4" font-family="Times-12" font-size="14.00"> &#160;Declarations</text>
<polygon fill="#8dd3c7" stroke="transparent" points="301,-10 301,-30 321,-30 321,-10 301,-10"/>
<text text-anchor="start" x="324.73" y="-15.4" font-family="Times-12" font-size="14.00"> &#160;Module</text>
<polygon fill="#80b1d3" stroke="transparent" points="387,-10 387,-30 407,-30 407,-10 387,-10"/>
<text text-anchor="start" x="410.78" y="-15.4" font-family="Times-12" font-size="14.00"> &#160;Bootstrap</text>
<polygon fill="#fdb462" stroke="transparent" points="484,-10 484,-30 504,-30 504,-10 484,-10"/>
<text text-anchor="start" x="507.67" y="-15.4" font-family="Times-12" font-size="14.00"> &#160;Providers</text>
<polygon fill="#fb8072" stroke="transparent" points="580,-10 580,-30 600,-30 600,-10 580,-10"/>
<text text-anchor="start" x="603.73" y="-15.4" font-family="Times-12" font-size="14.00"> &#160;Exports</text>
<g id="clust1" class="cluster">
<title>cluster_UsersModule</title>
<polygon fill="none" stroke="black" stroke-dasharray="1,5" points="8,-70 8,-268 836,-268 836,-70 8,-70"/>
</g>
<g id="clust6" class="cluster">
<title>cluster_UsersModule_providers</title>
<polygon fill="none" stroke="black" points="16,-78 16,-130 828,-130 828,-78 16,-78"/>
</g>
<g id="clust4" class="cluster">
<title>cluster_UsersModule_exports</title>
<polygon fill="none" stroke="black" points="324,-208 324,-260 545,-260 545,-208 324,-208"/>
</g>
<!-- RolesService  -->
<g id="node1" class="node">
<title>RolesService </title>
<polygon fill="#fb8072" stroke="black" points="536.86,-252 443.14,-252 443.14,-216 536.86,-216 536.86,-252"/>
<text text-anchor="middle" x="490" y="-229.8" font-family="Times,serif" font-size="14.00">RolesService </text>
</g>
<!-- UsersService  -->
<g id="node2" class="node">
<title>UsersService </title>
<polygon fill="#fb8072" stroke="black" points="425.85,-252 332.15,-252 332.15,-216 425.85,-216 425.85,-252"/>
<text text-anchor="middle" x="379" y="-229.8" font-family="Times,serif" font-size="14.00">UsersService </text>
</g>
<!-- UsersModule -->
<g id="node3" class="node">
<title>UsersModule</title>
<polygon fill="#8dd3c7" stroke="black" points="479.92,-187 476.92,-191 455.92,-191 452.92,-187 388.08,-187 388.08,-151 479.92,-151 479.92,-187"/>
<text text-anchor="middle" x="434" y="-164.8" font-family="Times,serif" font-size="14.00">UsersModule</text>
</g>
<!-- UsersModule&#45;&gt;RolesService  -->
<g id="edge1" class="edge">
<title>UsersModule&#45;&gt;RolesService </title>
<path fill="none" stroke="black" stroke-dasharray="5,2" d="M461.51,-187.11C461.51,-187.11 461.51,-205.99 461.51,-205.99"/>
<polygon fill="black" stroke="black" points="458.01,-205.99 461.51,-215.99 465.01,-205.99 458.01,-205.99"/>
</g>
<!-- UsersModule&#45;&gt;UsersService  -->
<g id="edge2" class="edge">
<title>UsersModule&#45;&gt;UsersService </title>
<path fill="none" stroke="black" stroke-dasharray="5,2" d="M406.98,-187.11C406.98,-187.11 406.98,-205.99 406.98,-205.99"/>
<polygon fill="black" stroke="black" points="403.48,-205.99 406.98,-215.99 410.48,-205.99 403.48,-205.99"/>
</g>
<!-- AuthService -->
<g id="node4" class="node">
<title>AuthService</title>
<ellipse fill="#fdb462" stroke="black" cx="761" cy="-104" rx="59.11" ry="18"/>
<text text-anchor="middle" x="761" y="-99.8" font-family="Times,serif" font-size="14.00">AuthService</text>
</g>
<!-- AuthService&#45;&gt;UsersModule -->
<g id="edge3" class="edge">
<title>AuthService&#45;&gt;UsersModule</title>
<path fill="none" stroke="black" d="M761,-122.28C761,-143.32 761,-175 761,-175 761,-175 489.81,-175 489.81,-175"/>
<polygon fill="black" stroke="black" points="489.81,-171.5 479.81,-175 489.81,-178.5 489.81,-171.5"/>
</g>
<!-- CaslAbilityFactory -->
<g id="node5" class="node">
<title>CaslAbilityFactory</title>
<ellipse fill="#fdb462" stroke="black" cx="599" cy="-104" rx="85.13" ry="18"/>
<text text-anchor="middle" x="599" y="-99.8" font-family="Times,serif" font-size="14.00">CaslAbilityFactory</text>
</g>
<!-- CaslAbilityFactory&#45;&gt;UsersModule -->
<g id="edge4" class="edge">
<title>CaslAbilityFactory&#45;&gt;UsersModule</title>
<path fill="none" stroke="black" d="M525.31,-113.22C525.31,-129.81 525.31,-163 525.31,-163 525.31,-163 489.92,-163 489.92,-163"/>
<polygon fill="black" stroke="black" points="489.92,-159.5 479.92,-163 489.92,-166.5 489.92,-159.5"/>
</g>
<!-- RolesService -->
<g id="node6" class="node">
<title>RolesService</title>
<ellipse fill="#fdb462" stroke="black" cx="434" cy="-104" rx="61.97" ry="18"/>
<text text-anchor="middle" x="434" y="-99.8" font-family="Times,serif" font-size="14.00">RolesService</text>
</g>
<!-- RolesService&#45;&gt;UsersModule -->
<g id="edge5" class="edge">
<title>RolesService&#45;&gt;UsersModule</title>
<path fill="none" stroke="black" d="M434,-122.11C434,-122.11 434,-140.99 434,-140.99"/>
<polygon fill="black" stroke="black" points="430.5,-140.99 434,-150.99 437.5,-140.99 430.5,-140.99"/>
</g>
<!-- UserIdentitiesService -->
<g id="node7" class="node">
<title>UserIdentitiesService</title>
<ellipse fill="#fdb462" stroke="black" cx="260" cy="-104" rx="94.31" ry="18"/>
<text text-anchor="middle" x="260" y="-99.8" font-family="Times,serif" font-size="14.00">UserIdentitiesService</text>
</g>
<!-- UserIdentitiesService&#45;&gt;UsersModule -->
<g id="edge6" class="edge">
<title>UserIdentitiesService&#45;&gt;UsersModule</title>
<path fill="none" stroke="black" d="M343.24,-112.45C343.24,-128.77 343.24,-163 343.24,-163 343.24,-163 378.09,-163 378.09,-163"/>
<polygon fill="black" stroke="black" points="378.09,-166.5 388.09,-163 378.09,-159.5 378.09,-166.5"/>
</g>
<!-- UsersService -->
<g id="node8" class="node">
<title>UsersService</title>
<ellipse fill="#fdb462" stroke="black" cx="86" cy="-104" rx="61.95" ry="18"/>
<text text-anchor="middle" x="86" y="-99.8" font-family="Times,serif" font-size="14.00">UsersService</text>
</g>
<!-- UsersService&#45;&gt;UsersModule -->
<g id="edge7" class="edge">
<title>UsersService&#45;&gt;UsersModule</title>
<path fill="none" stroke="black" d="M86,-122.28C86,-143.32 86,-175 86,-175 86,-175 378.15,-175 378.15,-175"/>
<polygon fill="black" stroke="black" points="378.15,-178.5 388.15,-175 378.15,-171.5 378.15,-178.5"/>
</g>
</g>
</svg>
